<svg width="28" height="22" viewBox="0 0 28 22" fill="none" xmlns="http://www.w3.org/2000/svg">
<path d="M24.7761 0.408643L7.20731 17.6868L2.40262 12.629C2.14354 12.3688 1.793 12.2203 1.4259 12.2152C1.0588 12.2101 0.704254 12.3487 0.438005 12.6015C0.171756 12.8543 0.0149217 13.2012 0.00101084 13.568C-0.0129 13.9349 0.117215 14.2927 0.363558 14.5649L6.15262 20.6586C6.28113 20.7935 6.43516 20.9015 6.60575 20.9763C6.77635 21.0512 6.96011 21.0914 7.14637 21.0946H7.16981C7.53806 21.0943 7.8915 20.9495 8.15418 20.6915L26.7401 2.41021C26.8718 2.28063 26.9768 2.12637 27.0489 1.95625C27.121 1.78612 27.1589 1.60345 27.1604 1.41868C27.162 1.23391 27.1271 1.05064 27.0578 0.879351C26.9885 0.708059 26.8861 0.552093 26.7565 0.420361C26.6269 0.288628 26.4727 0.183709 26.3026 0.111592C26.1324 0.0394745 25.9498 0.00157129 25.765 4.78282e-05C25.5802 -0.00147563 25.397 0.0334096 25.2257 0.102712C25.0544 0.172015 24.8984 0.274377 24.7667 0.403955L24.7761 0.408643Z" fill="black"/>
</svg>
